<mxfile host="app.diagrams.net" modified="2024-05-05T08:48:01.702Z" agent="Mozilla/5.0 (Windows NT 10.0; Win64; x64) AppleWebKit/537.36 (KHTML, like Gecko) Chrome/122.0.0.0 Safari/537.36" version="24.3.1" etag="XvXTymhI456WvRD7Z0-W" type="github">
  <diagram name="第 1 页" id="XT20RtiMRCoKYfPRFnhu">
    <mxGraphModel>
      <root>
        <mxCell id="0" />
        <mxCell id="1" parent="0" />
      </root>
    </mxGraphModel>
  </diagram>
</mxfile>
